<svg width="932" height="638" viewBox="0 0 932 638" fill="none" xmlns="http://www.w3.org/2000/svg">
<path d="M478.646 292.899C474.453 292.899 470.434 292.349 466.59 291.251C462.746 290.103 459.651 288.63 457.304 286.833L461.423 277.697C463.669 279.295 466.315 280.618 469.36 281.666C472.456 282.664 475.576 283.164 478.721 283.164C481.117 283.164 483.039 282.939 484.487 282.49C485.985 281.99 487.083 281.317 487.782 280.468C488.481 279.619 488.83 278.646 488.83 277.547C488.83 276.15 488.281 275.051 487.183 274.252C486.085 273.404 484.637 272.73 482.84 272.231C481.042 271.681 479.045 271.182 476.849 270.733C474.702 270.234 472.531 269.635 470.334 268.936C468.187 268.237 466.215 267.338 464.418 266.24C462.621 265.142 461.148 263.694 460 261.897C458.902 260.099 458.353 257.803 458.353 255.007C458.353 252.012 459.151 249.291 460.749 246.845C462.396 244.349 464.842 242.377 468.087 240.929C471.382 239.431 475.501 238.683 480.443 238.683C483.738 238.683 486.983 239.082 490.178 239.881C493.373 240.63 496.194 241.778 498.64 243.325L494.896 252.536C492.45 251.138 490.004 250.115 487.557 249.466C485.111 248.767 482.715 248.417 480.368 248.417C478.022 248.417 476.1 248.692 474.602 249.241C473.105 249.79 472.031 250.514 471.382 251.413C470.733 252.262 470.409 253.26 470.409 254.408C470.409 255.756 470.958 256.854 472.056 257.703C473.155 258.502 474.602 259.151 476.4 259.65C478.197 260.149 480.169 260.649 482.315 261.148C484.512 261.647 486.684 262.221 488.83 262.87C491.027 263.519 493.024 264.393 494.821 265.491C496.618 266.589 498.066 268.037 499.164 269.834C500.313 271.632 500.887 273.903 500.887 276.649C500.887 279.594 500.063 282.29 498.415 284.736C496.768 287.182 494.297 289.154 491.002 290.652C487.757 292.15 483.638 292.899 478.646 292.899ZM520.334 260.698H545.57V270.134H520.334V260.698ZM521.232 282.265H549.763V292H509.176V239.581H548.79V249.316H521.232V282.265ZM559.416 292V239.581H582.105C586.798 239.581 590.842 240.355 594.237 241.903C597.631 243.4 600.252 245.572 602.099 248.417C603.947 251.263 604.87 254.658 604.87 258.602C604.87 262.496 603.947 265.865 602.099 268.711C600.252 271.507 597.631 273.653 594.237 275.151C590.842 276.649 586.798 277.398 582.105 277.398H566.155L571.547 272.081V292H559.416ZM592.739 292L579.634 272.979H592.589L605.844 292H592.739ZM571.547 273.429L566.155 267.738H581.431C585.176 267.738 587.971 266.939 589.818 265.341C591.666 263.694 592.589 261.447 592.589 258.602C592.589 255.706 591.666 253.46 589.818 251.862C587.971 250.265 585.176 249.466 581.431 249.466H566.155L571.547 243.7V273.429ZM630.207 292L607.592 239.581H620.697L640.466 286.009H632.753L652.822 239.581H664.879L642.189 292H630.207ZM669.255 292V239.581H681.386V292H669.255ZM718.913 292.899C714.869 292.899 711.1 292.25 707.605 290.952C704.161 289.604 701.165 287.707 698.619 285.26C696.073 282.814 694.076 279.944 692.628 276.649C691.231 273.354 690.532 269.734 690.532 265.791C690.532 261.847 691.231 258.227 692.628 254.932C694.076 251.637 696.073 248.767 698.619 246.321C701.215 243.875 704.235 242.002 707.68 240.704C711.125 239.357 714.894 238.683 718.988 238.683C723.531 238.683 727.624 239.481 731.269 241.079C734.963 242.626 738.058 244.923 740.554 247.968L732.766 255.157C730.969 253.11 728.972 251.588 726.776 250.589C724.579 249.541 722.183 249.017 719.587 249.017C717.14 249.017 714.894 249.416 712.847 250.215C710.8 251.013 709.028 252.162 707.53 253.659C706.033 255.157 704.859 256.929 704.011 258.976C703.212 261.023 702.813 263.294 702.813 265.791C702.813 268.287 703.212 270.558 704.011 272.605C704.859 274.652 706.033 276.424 707.53 277.922C709.028 279.419 710.8 280.568 712.847 281.366C714.894 282.165 717.14 282.565 719.587 282.565C722.183 282.565 724.579 282.065 726.776 281.067C728.972 280.019 730.969 278.446 732.766 276.349L740.554 283.538C738.058 286.583 734.963 288.905 731.269 290.502C727.624 292.1 723.506 292.899 718.913 292.899ZM759.904 260.698H785.14V270.134H759.904V260.698ZM760.803 282.265H789.334V292H748.746V239.581H788.36V249.316H760.803V282.265ZM816.209 292.899C812.016 292.899 807.997 292.349 804.153 291.251C800.309 290.103 797.214 288.63 794.867 286.833L798.986 277.697C801.233 279.295 803.878 280.618 806.924 281.666C810.019 282.664 813.139 283.164 816.284 283.164C818.681 283.164 820.603 282.939 822.05 282.49C823.548 281.99 824.646 281.317 825.345 280.468C826.044 279.619 826.394 278.646 826.394 277.547C826.394 276.15 825.844 275.051 824.746 274.252C823.648 273.404 822.2 272.73 820.403 272.231C818.606 271.681 816.609 271.182 814.412 270.733C812.265 270.234 810.094 269.635 807.897 268.936C805.751 268.237 803.779 267.338 801.981 266.24C800.184 265.142 798.711 263.694 797.563 261.897C796.465 260.099 795.916 257.803 795.916 255.007C795.916 252.012 796.715 249.291 798.312 246.845C799.96 244.349 802.406 242.377 805.651 240.929C808.946 239.431 813.064 238.683 818.007 238.683C821.301 238.683 824.546 239.082 827.742 239.881C830.937 240.63 833.757 241.778 836.203 243.325L832.459 252.536C830.013 251.138 827.567 250.115 825.121 249.466C822.674 248.767 820.278 248.417 817.932 248.417C815.585 248.417 813.663 248.692 812.166 249.241C810.668 249.79 809.595 250.514 808.946 251.413C808.297 252.262 807.972 253.26 807.972 254.408C807.972 255.756 808.521 256.854 809.62 257.703C810.718 258.502 812.166 259.151 813.963 259.65C815.76 260.149 817.732 260.649 819.879 261.148C822.075 261.647 824.247 262.221 826.394 262.87C828.59 263.519 830.587 264.393 832.384 265.491C834.182 266.589 835.629 268.037 836.728 269.834C837.876 271.632 838.45 273.903 838.45 276.649C838.45 279.594 837.626 282.29 835.979 284.736C834.331 287.182 831.86 289.154 828.565 290.652C825.32 292.15 821.202 292.899 816.209 292.899Z" fill="white"/>
<path d="M132.16 239.581H144.291V292H132.16V239.581ZM108.347 292H96.2154V239.581H108.347V292ZM133.058 270.508H107.448V260.249H133.058V270.508ZM149.804 292L173.168 239.581H185.149L208.588 292H195.857L176.687 245.722H181.48L162.234 292H149.804ZM161.486 280.767L164.706 271.557H191.664L194.959 280.767H161.486ZM214.026 292V239.581H239.636C246.226 239.581 251.169 240.829 254.464 243.325C257.808 245.822 259.481 249.116 259.481 253.21C259.481 255.956 258.807 258.352 257.459 260.399C256.111 262.396 254.264 263.943 251.917 265.042C249.571 266.14 246.875 266.689 243.83 266.689L245.253 263.619C248.548 263.619 251.468 264.168 254.014 265.266C256.56 266.315 258.532 267.887 259.93 269.984C261.378 272.081 262.102 274.652 262.102 277.697C262.102 282.19 260.329 285.71 256.785 288.256C253.24 290.752 248.023 292 241.134 292H214.026ZM226.082 282.864H240.236C243.381 282.864 245.752 282.365 247.35 281.366C248.997 280.318 249.821 278.671 249.821 276.424C249.821 274.228 248.997 272.605 247.35 271.557C245.752 270.458 243.381 269.909 240.236 269.909H225.184V261.073H238.139C241.084 261.073 243.331 260.574 244.878 259.575C246.476 258.527 247.275 256.954 247.275 254.858C247.275 252.811 246.476 251.288 244.878 250.29C243.331 249.241 241.084 248.717 238.139 248.717H226.082V282.864ZM271.286 292V239.581H283.417V292H271.286ZM306.716 292V249.466H289.942V239.581H335.621V249.466H318.847V292H306.716ZM332.626 292L355.99 239.581H367.971L391.41 292H378.68L359.509 245.722H364.302L345.057 292H332.626ZM344.308 280.767L347.528 271.557H374.486L377.781 280.767H344.308ZM405.074 292V249.466H388.3V239.581H433.979V249.466H417.205V292H405.074Z" fill="white"/>
<path d="M98.6121 392.956V320.323H112.516L143.437 371.581H136.07L166.471 320.323H180.272L180.479 392.956H164.707L164.604 344.5H167.509L143.229 385.277H135.655L110.856 344.5H114.384V392.956H98.6121ZM213.172 349.584H248.139V362.658H213.172V349.584ZM214.417 379.467H253.949V392.956H197.711V320.323H252.601V333.812H214.417V379.467ZM267.324 392.956V320.323H281.228L324.081 372.619H317.336V320.323H333.938V392.956H320.138L277.181 340.66H283.926V392.956H267.324ZM383.392 394.201C373.085 394.201 365.027 391.33 359.216 385.589C353.405 379.847 350.5 371.65 350.5 360.997V320.323H367.309V360.375C367.309 367.292 368.727 372.273 371.563 375.316C374.4 378.36 378.377 379.882 383.496 379.882C388.615 379.882 392.592 378.36 395.428 375.316C398.264 372.273 399.682 367.292 399.682 360.375V320.323H416.284V360.997C416.284 371.65 413.379 379.847 407.568 385.589C401.758 391.33 393.699 394.201 383.392 394.201ZM432.895 392.956V320.323H449.704V392.956H432.895ZM490.806 394.201C484.995 394.201 479.427 393.44 474.101 391.918C468.774 390.327 464.485 388.286 461.234 385.796L466.941 373.137C470.054 375.351 473.72 377.184 477.94 378.637C482.228 380.02 486.552 380.712 490.91 380.712C494.23 380.712 496.893 380.401 498.899 379.778C500.974 379.086 502.496 378.153 503.465 376.977C504.433 375.801 504.917 374.452 504.917 372.93C504.917 370.993 504.156 369.471 502.635 368.364C501.113 367.189 499.107 366.255 496.617 365.563C494.126 364.802 491.359 364.11 488.316 363.488C485.341 362.796 482.332 361.966 479.289 360.997C476.314 360.029 473.582 358.784 471.092 357.262C468.601 355.74 466.561 353.734 464.97 351.244C463.448 348.754 462.687 345.572 462.687 341.698C462.687 337.548 463.794 333.778 466.007 330.388C468.29 326.929 471.679 324.197 476.176 322.191C480.741 320.116 486.448 319.078 493.296 319.078C497.862 319.078 502.358 319.632 506.785 320.738C511.212 321.776 515.12 323.367 518.51 325.511L513.322 338.274C509.932 336.337 506.543 334.919 503.153 334.02C499.764 333.051 496.444 332.567 493.192 332.567C489.941 332.567 487.278 332.948 485.203 333.708C483.128 334.469 481.64 335.472 480.741 336.718C479.842 337.893 479.392 339.277 479.392 340.868C479.392 342.736 480.153 344.257 481.675 345.433C483.197 346.54 485.203 347.439 487.693 348.131C490.183 348.823 492.916 349.515 495.89 350.206C498.934 350.898 501.943 351.694 504.917 352.593C507.961 353.492 510.728 354.703 513.218 356.224C515.708 357.746 517.714 359.752 519.236 362.243C520.827 364.733 521.623 367.88 521.623 371.685C521.623 375.766 520.481 379.501 518.199 382.891C515.916 386.28 512.492 389.013 507.926 391.088C503.43 393.163 497.723 394.201 490.806 394.201ZM548.569 349.584H583.536V362.658H548.569V349.584ZM549.814 379.467H589.347V392.956H533.109V320.323H587.998V333.812H549.814V379.467ZM602.721 392.956V320.323H634.161C640.663 320.323 646.266 321.396 650.97 323.54C655.674 325.615 659.305 328.624 661.865 332.567C664.424 336.51 665.704 341.214 665.704 346.679C665.704 352.074 664.424 356.743 661.865 360.686C659.305 364.56 655.674 367.534 650.97 369.61C646.266 371.685 640.663 372.722 634.161 372.722H612.06L619.53 365.355V392.956H602.721ZM648.895 392.956L630.737 366.601H648.687L667.053 392.956H648.895ZM619.53 367.223L612.06 359.337H633.227C638.415 359.337 642.289 358.231 644.848 356.017C647.407 353.734 648.687 350.621 648.687 346.679C648.687 342.666 647.407 339.554 644.848 337.34C642.289 335.127 638.415 334.02 633.227 334.02H612.06L619.53 326.03V367.223ZM679.022 392.956V320.323H695.831V392.956H679.022ZM728.528 349.584H763.495V362.658H728.528V349.584ZM729.773 379.467H769.306V392.956H713.068V320.323H767.957V333.812H729.773V379.467ZM806.545 394.201C800.735 394.201 795.166 393.44 789.84 391.918C784.514 390.327 780.225 388.286 776.974 385.796L782.681 373.137C785.793 375.351 789.46 377.184 793.679 378.637C797.968 380.02 802.291 380.712 806.649 380.712C809.97 380.712 812.633 380.401 814.639 379.778C816.714 379.086 818.236 378.153 819.204 376.977C820.173 375.801 820.657 374.452 820.657 372.93C820.657 370.993 819.896 369.471 818.374 368.364C816.852 367.189 814.846 366.255 812.356 365.563C809.866 364.802 807.099 364.11 804.055 363.488C801.081 362.796 798.072 361.966 795.028 360.997C792.054 360.029 789.321 358.784 786.831 357.262C784.341 355.74 782.3 353.734 780.709 351.244C779.187 348.754 778.426 345.572 778.426 341.698C778.426 337.548 779.533 333.778 781.747 330.388C784.029 326.929 787.419 324.197 791.915 322.191C796.481 320.116 802.188 319.078 809.036 319.078C813.601 319.078 818.097 319.632 822.525 320.738C826.952 321.776 830.86 323.367 834.249 325.511L829.061 338.274C825.672 336.337 822.282 334.919 818.893 334.02C815.503 333.051 812.183 332.567 808.932 332.567C805.681 332.567 803.018 332.948 800.942 333.708C798.867 334.469 797.38 335.472 796.481 336.718C795.581 337.893 795.132 339.277 795.132 340.868C795.132 342.736 795.893 344.257 797.415 345.433C798.936 346.54 800.942 347.439 803.433 348.131C805.923 348.823 808.655 349.515 811.63 350.206C814.673 350.898 817.682 351.694 820.657 352.593C823.701 353.492 826.467 354.703 828.958 356.224C831.448 357.746 833.454 359.752 834.976 362.243C836.567 364.733 837.362 367.88 837.362 371.685C837.362 375.766 836.221 379.501 833.938 382.891C831.655 386.28 828.231 389.013 823.666 391.088C819.17 393.163 813.463 394.201 806.545 394.201Z" fill="#B19777"/>
<path d="M91 213L264 139" stroke="#B19777" stroke-width="10"/>
<path d="M434 213L260 139" stroke="#B19777" stroke-width="10"/>
<path d="M349 175V145H383V192" stroke="#B19777" stroke-width="10"/>
</svg>
