<svg width="754" height="234" viewBox="0 0 754 234" fill="none" xmlns="http://www.w3.org/2000/svg">
<g clip-path="url(#clip0_1_2)">
<path d="M389.646 163.899C385.453 163.899 381.434 163.349 377.59 162.251C373.746 161.103 370.651 159.63 368.304 157.833L372.423 148.697C374.669 150.295 377.315 151.618 380.36 152.666C383.456 153.664 386.576 154.164 389.721 154.164C392.117 154.164 394.039 153.939 395.487 153.49C396.985 152.99 398.083 152.317 398.782 151.468C399.481 150.619 399.83 149.646 399.83 148.547C399.83 147.15 399.281 146.051 398.183 145.252C397.085 144.404 395.637 143.73 393.84 143.231C392.042 142.681 390.045 142.182 387.849 141.733C385.702 141.234 383.531 140.635 381.334 139.936C379.187 139.237 377.215 138.338 375.418 137.24C373.621 136.142 372.148 134.694 371 132.897C369.902 131.099 369.353 128.803 369.353 126.007C369.353 123.012 370.151 120.291 371.749 117.845C373.396 115.349 375.842 113.377 379.087 111.929C382.382 110.431 386.501 109.683 391.443 109.683C394.738 109.683 397.983 110.082 401.178 110.881C404.373 111.63 407.194 112.778 409.64 114.325L405.896 123.536C403.45 122.138 401.004 121.115 398.557 120.466C396.111 119.767 393.715 119.417 391.368 119.417C389.022 119.417 387.1 119.692 385.602 120.241C384.105 120.79 383.031 121.514 382.382 122.413C381.733 123.262 381.409 124.26 381.409 125.408C381.409 126.756 381.958 127.854 383.056 128.703C384.155 129.502 385.602 130.151 387.4 130.65C389.197 131.149 391.169 131.649 393.315 132.148C395.512 132.647 397.684 133.221 399.83 133.87C402.027 134.519 404.024 135.393 405.821 136.491C407.618 137.589 409.066 139.037 410.164 140.834C411.313 142.632 411.887 144.903 411.887 147.649C411.887 150.594 411.063 153.29 409.415 155.736C407.768 158.182 405.297 160.154 402.002 161.652C398.757 163.15 394.638 163.899 389.646 163.899ZM431.334 131.698H456.57V141.134H431.334V131.698ZM432.232 153.265H460.763V163H420.176V110.581H459.79V120.316H432.232V153.265ZM470.416 163V110.581H493.105C497.798 110.581 501.842 111.355 505.237 112.903C508.631 114.4 511.252 116.572 513.099 119.417C514.947 122.263 515.87 125.658 515.87 129.602C515.87 133.496 514.947 136.865 513.099 139.711C511.252 142.507 508.631 144.653 505.237 146.151C501.842 147.649 497.798 148.398 493.105 148.398H477.155L482.547 143.081V163H470.416ZM503.739 163L490.634 143.979H503.589L516.844 163H503.739ZM482.547 144.429L477.155 138.738H492.431C496.176 138.738 498.971 137.939 500.818 136.341C502.666 134.694 503.589 132.447 503.589 129.602C503.589 126.706 502.666 124.46 500.818 122.862C498.971 121.265 496.176 120.466 492.431 120.466H477.155L482.547 114.7V144.429ZM541.207 163L518.592 110.581H531.697L551.466 157.009H543.753L563.822 110.581H575.879L553.189 163H541.207ZM580.255 163V110.581H592.386V163H580.255ZM629.913 163.899C625.869 163.899 622.1 163.25 618.605 161.952C615.161 160.604 612.165 158.707 609.619 156.26C607.073 153.814 605.076 150.944 603.628 147.649C602.231 144.354 601.532 140.734 601.532 136.791C601.532 132.847 602.231 129.227 603.628 125.932C605.076 122.637 607.073 119.767 609.619 117.321C612.215 114.875 615.235 113.002 618.68 111.704C622.125 110.357 625.894 109.683 629.988 109.683C634.531 109.683 638.624 110.481 642.269 112.079C645.963 113.626 649.058 115.923 651.554 118.968L643.766 126.157C641.969 124.11 639.972 122.588 637.776 121.589C635.579 120.541 633.183 120.017 630.587 120.017C628.14 120.017 625.894 120.416 623.847 121.215C621.8 122.013 620.028 123.162 618.53 124.659C617.033 126.157 615.859 127.929 615.011 129.976C614.212 132.023 613.813 134.294 613.813 136.791C613.813 139.287 614.212 141.558 615.011 143.605C615.859 145.652 617.033 147.424 618.53 148.922C620.028 150.419 621.8 151.568 623.847 152.366C625.894 153.165 628.14 153.565 630.587 153.565C633.183 153.565 635.579 153.065 637.776 152.067C639.972 151.019 641.969 149.446 643.766 147.349L651.554 154.538C649.058 157.583 645.963 159.905 642.269 161.502C638.624 163.1 634.506 163.899 629.913 163.899ZM670.904 131.698H696.14V141.134H670.904V131.698ZM671.803 153.265H700.334V163H659.746V110.581H699.36V120.316H671.803V153.265ZM727.209 163.899C723.016 163.899 718.997 163.349 715.153 162.251C711.309 161.103 708.214 159.63 705.867 157.833L709.986 148.697C712.233 150.295 714.878 151.618 717.924 152.666C721.019 153.664 724.139 154.164 727.284 154.164C729.681 154.164 731.603 153.939 733.05 153.49C734.548 152.99 735.646 152.317 736.345 151.468C737.044 150.619 737.394 149.646 737.394 148.547C737.394 147.15 736.844 146.051 735.746 145.252C734.648 144.404 733.2 143.73 731.403 143.231C729.606 142.681 727.609 142.182 725.412 141.733C723.265 141.234 721.094 140.635 718.897 139.936C716.751 139.237 714.779 138.338 712.981 137.24C711.184 136.142 709.711 134.694 708.563 132.897C707.465 131.099 706.916 128.803 706.916 126.007C706.916 123.012 707.715 120.291 709.312 117.845C710.96 115.349 713.406 113.377 716.651 111.929C719.946 110.431 724.064 109.683 729.007 109.683C732.301 109.683 735.546 110.082 738.742 110.881C741.937 111.63 744.757 112.778 747.203 114.325L743.459 123.536C741.013 122.138 738.567 121.115 736.121 120.466C733.674 119.767 731.278 119.417 728.932 119.417C726.585 119.417 724.663 119.692 723.166 120.241C721.668 120.79 720.595 121.514 719.946 122.413C719.297 123.262 718.972 124.26 718.972 125.408C718.972 126.756 719.521 127.854 720.62 128.703C721.718 129.502 723.166 130.151 724.963 130.65C726.76 131.149 728.732 131.649 730.879 132.148C733.075 132.647 735.247 133.221 737.394 133.87C739.59 134.519 741.587 135.393 743.384 136.491C745.182 137.589 746.629 139.037 747.728 140.834C748.876 142.632 749.45 144.903 749.45 147.649C749.45 150.594 748.626 153.29 746.979 155.736C745.331 158.182 742.86 160.154 739.565 161.652C736.32 163.15 732.202 163.899 727.209 163.899Z" fill="#192F49"/>
<path d="M43.1597 110.581H55.2909V163H43.1597V110.581ZM19.3466 163H7.21538V110.581H19.3466V163ZM44.0583 141.508H18.448V131.249H44.0583V141.508ZM60.8037 163L84.1675 110.581H96.149L119.588 163H106.857L87.6871 116.722H92.4796L73.2344 163H60.8037ZM72.4856 151.767L75.7056 142.557H102.664L105.959 151.767H72.4856ZM125.026 163V110.581H150.636C157.226 110.581 162.169 111.829 165.464 114.325C168.808 116.822 170.481 120.116 170.481 124.21C170.481 126.956 169.807 129.352 168.459 131.399C167.111 133.396 165.264 134.943 162.917 136.042C160.571 137.14 157.875 137.689 154.83 137.689L156.253 134.619C159.548 134.619 162.468 135.168 165.014 136.266C167.56 137.315 169.532 138.887 170.93 140.984C172.378 143.081 173.102 145.652 173.102 148.697C173.102 153.19 171.329 156.71 167.785 159.256C164.24 161.752 159.023 163 152.134 163H125.026ZM137.082 153.864H151.236C154.381 153.864 156.752 153.365 158.35 152.366C159.997 151.318 160.821 149.671 160.821 147.424C160.821 145.228 159.997 143.605 158.35 142.557C156.752 141.458 154.381 140.909 151.236 140.909H136.184V132.073H149.139C152.084 132.073 154.331 131.574 155.878 130.575C157.476 129.527 158.275 127.954 158.275 125.858C158.275 123.811 157.476 122.288 155.878 121.29C154.331 120.241 152.084 119.717 149.139 119.717H137.082V153.864ZM182.286 163V110.581H194.417V163H182.286ZM217.716 163V120.466H200.942V110.581H246.621V120.466H229.847V163H217.716ZM243.626 163L266.99 110.581H278.971L302.41 163H289.68L270.509 116.722H275.302L256.057 163H243.626ZM255.308 151.767L258.528 142.557H285.486L288.781 151.767H255.308ZM316.074 163V120.466H299.3V110.581H344.979V120.466H328.205V163H316.074Z" fill="#192F49"/>
<path d="M5.0661 229V191.274H10.8328L27.3246 218.814H24.3065L40.5288 191.274H46.2956L46.3494 229H39.7204L39.6665 201.675H41.0678L27.2707 224.688H24.1448L10.1322 201.675H11.749V229H5.0661ZM99.3861 206.957H118.141V212.724H99.3861V206.957ZM99.925 223.125H121.213V229H92.9187V191.274H120.459V197.148H99.925V223.125ZM165.403 229V191.274H171.17L194.829 220.323H191.973V191.274H198.925V229H193.159L169.499 199.951H172.355V229H165.403ZM261.636 229.539C256.462 229.539 252.402 228.084 249.455 225.173C246.545 222.263 245.09 218.059 245.09 212.562V191.274H252.096V212.293C252.096 216.173 252.923 218.994 254.575 220.754C256.264 222.515 258.636 223.395 261.69 223.395C264.744 223.395 267.097 222.515 268.75 220.754C270.403 218.994 271.229 216.173 271.229 212.293V191.274H278.127V212.562C278.127 218.059 276.654 222.263 273.708 225.173C270.798 228.084 266.774 229.539 261.636 229.539ZM324.319 229V191.274H331.325V229H324.319ZM389.603 229.539C386.657 229.539 383.836 229.126 381.142 228.299C378.447 227.437 376.309 226.341 374.728 225.012L377.153 219.568C378.663 220.754 380.531 221.742 382.759 222.533C384.986 223.323 387.268 223.718 389.603 223.718C391.579 223.718 393.178 223.503 394.4 223.072C395.621 222.64 396.52 222.066 397.095 221.347C397.669 220.592 397.957 219.748 397.957 218.814C397.957 217.664 397.544 216.748 396.717 216.065C395.891 215.347 394.813 214.79 393.484 214.395C392.19 213.963 390.735 213.568 389.118 213.209C387.537 212.85 385.938 212.436 384.321 211.969C382.741 211.466 381.285 210.837 379.956 210.083C378.663 209.293 377.603 208.251 376.776 206.957C375.95 205.664 375.537 204.011 375.537 201.999C375.537 199.951 376.076 198.082 377.153 196.394C378.267 194.669 379.938 193.304 382.166 192.298C384.429 191.256 387.286 190.735 390.735 190.735C392.999 190.735 395.244 191.022 397.472 191.597C399.699 192.172 401.64 192.998 403.292 194.076L401.083 199.52C399.394 198.514 397.651 197.777 395.855 197.31C394.058 196.807 392.334 196.555 390.681 196.555C388.741 196.555 387.16 196.789 385.938 197.256C384.753 197.723 383.872 198.334 383.297 199.088C382.759 199.843 382.489 200.705 382.489 201.675C382.489 202.825 382.884 203.759 383.675 204.478C384.501 205.161 385.561 205.7 386.855 206.095C388.184 206.49 389.657 206.885 391.274 207.28C392.891 207.64 394.49 208.053 396.071 208.52C397.687 208.987 399.143 209.598 400.436 210.352C401.765 211.107 402.825 212.131 403.616 213.424C404.442 214.718 404.855 216.353 404.855 218.329C404.855 220.341 404.298 222.209 403.185 223.934C402.107 225.623 400.436 226.988 398.172 228.03C395.909 229.036 393.052 229.539 389.603 229.539ZM454.649 206.957H473.404V212.724H454.649V206.957ZM455.188 223.125H476.476V229H448.182V191.274H475.722V197.148H455.188V223.125ZM520.666 229V191.274H536.187C539.529 191.274 542.385 191.813 544.757 192.891C547.164 193.968 549.014 195.513 550.308 197.525C551.601 199.538 552.248 201.927 552.248 204.693C552.248 207.46 551.601 209.849 550.308 211.861C549.014 213.838 547.164 215.365 544.757 216.443C542.385 217.484 539.529 218.005 536.187 218.005H524.546L527.672 214.826V229H520.666ZM545.35 229L535.81 215.311H543.302L552.895 229H545.35ZM527.672 215.58L524.546 212.239H535.864C538.954 212.239 541.272 211.574 542.816 210.245C544.397 208.915 545.188 207.065 545.188 204.693C545.188 202.286 544.397 200.436 542.816 199.142C541.272 197.849 538.954 197.202 535.864 197.202H524.546L527.672 193.753V215.58ZM596.466 229V191.274H603.472V229H596.466ZM656.523 206.957H675.278V212.724H656.523V206.957ZM657.061 223.125H678.35V229H650.055V191.274H677.595V197.148H657.061V223.125ZM734.235 229.539C731.288 229.539 728.468 229.126 725.773 228.299C723.078 227.437 720.94 226.341 719.36 225.012L721.785 219.568C723.294 220.754 725.162 221.742 727.39 222.533C729.618 223.323 731.899 223.718 734.235 223.718C736.211 223.718 737.81 223.503 739.031 223.072C740.253 222.64 741.151 222.066 741.726 221.347C742.301 220.592 742.588 219.748 742.588 218.814C742.588 217.664 742.175 216.748 741.349 216.065C740.522 215.347 739.444 214.79 738.115 214.395C736.821 213.963 735.366 213.568 733.749 213.209C732.169 212.85 730.57 212.436 728.953 211.969C727.372 211.466 725.917 210.837 724.587 210.083C723.294 209.293 722.234 208.251 721.408 206.957C720.581 205.664 720.168 204.011 720.168 201.999C720.168 199.951 720.707 198.082 721.785 196.394C722.899 194.669 724.569 193.304 726.797 192.298C729.061 191.256 731.917 190.735 735.366 190.735C737.63 190.735 739.876 191.022 742.103 191.597C744.331 192.172 746.271 192.998 747.924 194.076L745.714 199.52C744.025 198.514 742.283 197.777 740.486 197.31C738.69 196.807 736.965 196.555 735.312 196.555C733.372 196.555 731.791 196.789 730.57 197.256C729.384 197.723 728.504 198.334 727.929 199.088C727.39 199.843 727.12 200.705 727.12 201.675C727.12 202.825 727.516 203.759 728.306 204.478C729.132 205.161 730.192 205.7 731.486 206.095C732.815 206.49 734.288 206.885 735.905 207.28C737.522 207.64 739.121 208.053 740.702 208.52C742.319 208.987 743.774 209.598 745.067 210.352C746.397 211.107 747.457 212.131 748.247 213.424C749.074 214.718 749.487 216.353 749.487 218.329C749.487 220.341 748.93 222.209 747.816 223.934C746.738 225.623 745.067 226.988 742.804 228.03C740.54 229.036 737.684 229.539 734.235 229.539Z" fill="#B49B7E"/>
<path d="M260 49V14H294V61" stroke="#E2D1A5" stroke-width="10"/>
<path d="M2 84L175 10" stroke="#B49B7E" stroke-width="10"/>
<path d="M345 84L171 10" stroke="#B49B7E" stroke-width="10"/>
</g>
<defs>
<clipPath id="clip0_1_2">
<rect width="754" height="234" fill="white"/>
</clipPath>
</defs>
</svg>
